<?xml version="1.0" standalone="no"?>
<!DOCTYPE svg PUBLIC "-//W3C//DTD SVG 20010904//EN"
 "http://www.w3.org/TR/2001/REC-SVG-20010904/DTD/svg10.dtd">
<svg version="1.0" xmlns="http://www.w3.org/2000/svg"
 width="200.000000pt" height="123.000000pt" viewBox="0 0 200.000000 123.000000"
 preserveAspectRatio="xMidYMid meet">

<g transform="translate(0.000000,123.000000) scale(0.100000,-0.100000)"
fill="#000000" stroke="none">
<path d="M995 903 c-22 -14 -42 -27 -44 -29 -3 -3 49 -166 56 -174 2 -2 47 18
99 45 l95 50 -6 45 c-4 25 -9 48 -11 52 -2 4 -30 12 -62 18 -31 6 -64 13 -72
16 -9 2 -33 -8 -55 -23z m75 -1 c0 -4 -6 -14 -12 -22 -8 -9 -5 -8 7 2 23 18
79 15 101 -6 15 -16 18 -54 6 -72 -7 -12 -114 -74 -126 -74 -4 0 -5 4 -2 8 3
5 -4 8 -16 8 -16 -1 -25 10 -39 52 -10 29 -15 60 -12 68 10 27 93 59 93 36z"/>
<path d="M1012 865 c-7 -8 -9 -15 -5 -16 4 0 18 -2 30 -5 22 -4 22 -3 6 16
-10 11 -18 20 -18 20 0 -1 -6 -7 -13 -15z"/>
<path d="M1100 853 c0 -17 -4 -21 -17 -17 -15 5 -15 4 -3 -5 12 -9 11 -15 -8
-43 l-23 -33 28 31 c15 17 33 33 39 35 7 3 6 12 -3 29 -12 24 -13 24 -13 3z"/>
<path d="M1129 853 c-13 -16 -12 -17 4 -4 9 7 17 15 17 17 0 8 -8 3 -21 -13z"/>
<path d="M698 869 c-22 -9 -28 -18 -34 -55 -8 -53 -4 -59 32 -47 21 7 30 20
40 54 20 66 18 68 -38 48z"/>
<path d="M854 859 c-3 -5 6 -9 20 -9 31 0 34 6 6 13 -11 3 -23 1 -26 -4z"/>
<path d="M1408 823 c-13 -3 -18 -14 -18 -37 0 -58 -12 -95 -31 -101 -46 -15
-86 -113 -67 -166 13 -39 40 -37 72 4 22 27 26 29 26 12 0 -55 52 -59 79 -7
20 36 20 36 21 10 0 -16 4 -28 9 -28 5 0 16 -3 25 -6 14 -5 16 6 16 85 0 90 0
90 -22 82 -16 -6 -25 -19 -29 -42 -8 -47 -44 -115 -53 -100 -14 22 -8 192 10
279 4 22 -2 25 -38 15z m-28 -195 c0 -37 -28 -100 -47 -106 -21 -6 -16 69 7
106 11 17 24 32 30 32 5 0 10 -15 10 -32z"/>
<path d="M463 780 c-19 -8 -23 -17 -23 -53 0 -53 5 -59 36 -45 21 10 24 18 24
60 0 51 -2 52 -37 38z"/>
<path d="M655 726 c-137 -46 -317 -125 -330 -145 -17 -29 13 -20 152 47 122
58 236 104 333 136 10 3 8 5 -5 5 -11 0 -78 -19 -150 -43z"/>
<path d="M910 740 c0 -5 4 -10 9 -10 6 0 13 5 16 10 3 6 -1 10 -9 10 -9 0 -16
-4 -16 -10z"/>
<path d="M1510 721 c-14 -27 -13 -29 14 -24 30 6 43 43 15 43 -10 0 -23 -9
-29 -19z"/>
<path d="M772 695 c-12 -9 -22 -20 -22 -26 0 -15 40 -10 46 6 11 27 0 36 -24
20z"/>
<path d="M668 693 c-17 -4 -26 -48 -31 -163 l-2 -55 -19 90 c-11 50 -20 91
-21 93 -1 1 -14 -2 -28 -9 -21 -9 -26 -20 -32 -73 l-8 -61 -11 52 c-11 52 -18
55 -54 28 -4 -4 29 -138 39 -157 5 -10 18 -18 29 -18 15 0 20 10 25 58 13 111
19 114 44 19 22 -83 24 -87 51 -87 31 0 30 -6 45 175 3 39 8 80 12 93 5 22 -2
25 -39 15z"/>
<path d="M1239 635 c-11 -25 -22 -45 -25 -45 -2 0 -1 18 2 40 7 40 1 47 -25
31 -9 -6 -15 -28 -15 -59 -1 -34 -7 -57 -20 -71 -26 -28 -34 -17 -38 49 -3 50
-6 55 -31 64 -41 15 -78 -9 -96 -61 -12 -34 -13 -44 -2 -57 20 -24 47 -19 69
11 l19 26 7 -36 c6 -33 10 -37 36 -37 19 0 34 8 45 23 l15 22 6 -22 c4 -14 14
-23 26 -23 13 0 18 6 17 23 -5 55 2 80 31 107 32 30 40 60 14 60 -8 0 -24 -19
-35 -45z m-159 -10 c0 -15 -52 -85 -60 -80 -8 5 1 52 15 75 6 10 45 14 45 5z"/>
<path d="M832 648 c3 -21 8 -23 50 -20 l47 4 -25 -64 c-14 -35 -35 -71 -47
-80 -29 -22 -11 -46 21 -29 11 6 56 11 99 12 84 0 78 11 -14 24 -50 6 -51 8
-43 31 6 13 25 49 44 79 33 50 34 54 16 60 -11 3 -28 1 -39 -4 -25 -14 -71
-14 -71 -1 0 6 -9 10 -21 10 -15 0 -20 -5 -17 -22z"/>
<path d="M758 629 c-15 -8 -18 -24 -18 -84 0 -41 4 -75 9 -75 5 0 16 -3 24 -6
9 -3 24 7 40 28 29 38 45 88 28 88 -6 0 -11 -7 -11 -15 0 -23 -29 -75 -42 -75
-7 0 -9 23 -4 75 7 76 4 82 -26 64z"/>
<path d="M970 411 c0 -11 -4 -23 -10 -26 -17 -10 -11 -25 10 -25 16 0 20 7 20
35 0 19 -4 35 -10 35 -5 0 -10 -9 -10 -19z"/>
<path d="M1330 396 c0 -20 5 -36 10 -36 6 0 10 6 10 13 0 8 4 7 10 -3 8 -13
10 -12 10 3 0 9 -4 17 -10 17 -5 0 -10 6 -10 14 0 8 -4 18 -10 21 -6 4 -10 -8
-10 -29z"/>
<path d="M1528 413 c-5 -23 1 -53 12 -53 14 0 18 36 5 54 -12 15 -13 15 -17
-1z"/>
<path d="M1154 396 c-3 -9 -11 -13 -16 -10 -6 4 -5 -3 2 -16 6 -12 9 -28 6
-36 -3 -8 -1 -14 3 -14 5 0 11 19 13 43 5 46 2 59 -8 33z"/>
<path d="M1261 400 c0 -8 4 -24 9 -35 7 -17 9 -17 9 -2 1 9 6 17 11 17 6 0 10
5 10 11 0 5 -5 7 -11 3 -6 -3 -15 0 -20 7 -7 12 -9 11 -8 -1z"/>
<path d="M1470 395 c0 -35 14 -46 27 -19 7 14 7 22 1 18 -6 -4 -14 0 -19 7 -7
11 -9 9 -9 -6z"/>
<path d="M712 381 c4 -22 62 -21 66 2 2 9 -2 17 -8 17 -6 0 -8 -4 -5 -10 3 -5
1 -10 -4 -10 -6 0 -11 4 -11 8 0 4 -9 8 -20 8 -13 0 -20 -6 -18 -15z"/>
<path d="M792 380 c0 -14 2 -19 5 -12 2 6 2 18 0 25 -3 6 -5 1 -5 -13z"/>
<path d="M810 396 c0 -9 30 -14 35 -6 4 6 -3 10 -14 10 -12 0 -21 -2 -21 -4z"/>
<path d="M867 393 c-11 -10 -8 -20 8 -27 10 -4 15 1 15 14 0 20 -11 26 -23 13z"/>
<path d="M908 373 c5 -25 6 -25 18 -8 18 25 18 30 -4 32 -15 1 -18 -4 -14 -24z"/>
<path d="M1050 384 c0 -13 8 -19 25 -20 27 -2 30 3 15 26 -8 12 -10 12 -10 1
0 -11 -3 -11 -15 -1 -12 10 -15 9 -15 -6z"/>
<path d="M1180 385 c-10 -12 -10 -15 3 -15 19 0 31 16 18 24 -5 3 -14 -1 -21
-9z"/>
<path d="M1221 383 c-1 -14 5 -23 14 -23 9 0 15 9 14 23 0 21 -1 21 -8 2 l-8
-20 -5 20 c-5 18 -6 18 -7 -2z"/>
<path d="M1387 393 c-12 -11 -8 -33 6 -33 7 0 13 9 14 20 2 20 -8 26 -20 13z"/>
<path d="M1435 390 c-3 -6 1 -17 9 -26 15 -14 16 -13 16 10 0 26 -13 35 -25
16z"/>
<path d="M1020 380 c0 -5 5 -10 10 -10 6 0 10 5 10 10 0 6 -4 10 -10 10 -5 0
-10 -4 -10 -10z"/>
<path d="M815 370 c-4 -6 3 -10 14 -10 25 0 27 6 6 13 -8 4 -17 2 -20 -3z"/>
</g>
</svg>
